PathFileType	4	(X/Y/Z)	C:\Users\Basilio\Documents\Thesis Gigler\squatting_fais\c3dfiles\058\SLS_back_pre4\markers_experimental.trc
DataRate	CameraRate	NumFrames	NumMarkers	Units	OrigDataRate	OrigDataStartFrame	OrigNumFrames
200.000000	200.000000	4	61	mm	200.000000	799	1279
Frame#	Time	FHD			LBHD			RBHD			C7			T10			CLAV			LSHO			LUUPA			LMUPA			LDUPA			LLEP			LMEP			LRAD			LUL			LRFIN			RSHO			RUPA1			RMUPA			RDUPA			RLEP			RMEP			RRAD			RUL			RUFIN			LASI			RASI			USACR			LSACR			RSACR			LTHI1			LTHI2			LTHI3			LTHI4			LLFC			LMFC			LTIB1			LTIB2			LTIB3			LTIB4			LLMAL			LMMAL			LHEE			LMT1			LMT2			LMT5			RTHI			RTHI2			RTHI3			RTHI4			RLFC			RMFC			RTIB1			RTIB2			RTIB3			RTIB4			RLMAL			RMMAL			RHEE			RMT1			RMT2			RMT5			
		X1	Y1	Z1	X2	Y2	Z2	X3	Y3	Z3	X4	Y4	Z4	X5	Y5	Z5	X6	Y6	Z6	X7	Y7	Z7	X8	Y8	Z8	X9	Y9	Z9	X10	Y10	Z10	X11	Y11	Z11	X12	Y12	Z12	X13	Y13	Z13	X14	Y14	Z14	X15	Y15	Z15	X16	Y16	Z16	X17	Y17	Z17	X18	Y18	Z18	X19	Y19	Z19	X20	Y20	Z20	X21	Y21	Z21	X22	Y22	Z22	X23	Y23	Z23	X24	Y24	Z24	X25	Y25	Z25	X26	Y26	Z26	X27	Y27	Z27	X28	Y28	Z28	X29	Y29	Z29	X30	Y30	Z30	X31	Y31	Z31	X32	Y32	Z32	X33	Y33	Z33	X34	Y34	Z34	X35	Y35	Z35	X36	Y36	Z36	X37	Y37	Z37	X38	Y38	Z38	X39	Y39	Z39	X40	Y40	Z40	X41	Y41	Z41	X42	Y42	Z42	X43	Y43	Z43	X44	Y44	Z44	X45	Y45	Z45	X46	Y46	Z46	X47	Y47	Z47	X48	Y48	Z48	X49	Y49	Z49	X50	Y50	Z50	X51	Y51	Z51	X52	Y52	Z52	X53	Y53	Z53	X54	Y54	Z54	X55	Y55	Z55	X56	Y56	Z56	X57	Y57	Z57	X58	Y58	Z58	X59	Y59	Z59	X60	Y60	Z60	X61	Y61	Z61	

800	3.995	-150.9453125	1565.780029296875	-645.3985595703126	-304.6758422851563	1528.790893554688	-733.0216674804689	-127.3007736206055	1573.336181640625	-786.7437744140627	-334.4593811035157	1387.836303710938	-744.9833984375001	-435.7688293457032	1108.077880859375	-746.0274047851564	-190.5548553466797	1308.508911132813	-720.7788696289064	-192.8157958984376	1371.923706054688	-867.183776855469	-39.7107048034668	1317.191772460938	-972.3937988281252	-17.96715927124024	1355.01025390625	-945.629333496094	28.96985435485841	1319.640258789063	-959.9704589843752	102.9127731323242	1327.536010742188	-939.9441528320315	107.6802520751953	1271.987060546875	-904.8059082031252	363.2898559570313	1352.71630859375	-829.9123535156252	367.8274536132813	1374.950317382813	-909.0603637695315	461.3672485351564	1383.855590820313	-827.1223144531252	-218.3487548828126	1383.08740234375	-580.9598999023439	-70.46212005615236	1308.376220703125	-468.9199218750001	-49.09772109985353	1346.36474609375	-494.1943664550782	-1.704000115394593	1318.936401367188	-470.9375610351564	66.86617279052736	1313.666015625	-479.700164794922	75.52821350097658	1255.32666015625	-529.9613647460939	327.7759094238282	1356.07958984375	-560.7023315429689	332.0511169433594	1371.547729492188	-488.1193237304689	421.969451904297	1397.90283203125	-555.6074218750001	-332.0594177246094	847.412780761719	-855.8491210937502	-331.7381896972657	879.221374511719	-621.1276855468751	-488.569305419922	1002.197875976563	-744.6288452148439	-504.1242675781251	971.1055908203127	-769.6633300781252	-505.3951110839845	977.116638183594	-711.5982055664064	-396.329315185547	586.1696777343751	-940.3781738281252	-364.8659667968751	506.1222534179689	-942.657165527344	-319.5043640136719	505.2433471679689	-920.459167480469	-394.4085388183595	453.3013610839845	-935.8215942382815	-411.3352050781251	375.0258178710938	-920.470397949219	-380.2113342285157	352.2573547363282	-794.7981567382815	-497.7998657226564	282.2106323242188	-874.306091308594	-556.0899658203126	336.8845825195313	-910.0797119140627	-551.9254760742189	294.9995422363282	-896.1433715820315	-622.8734741210939	272.9828491210938	-855.9192504882815	-820.1979980468752	312.4212951660157	-824.982360839844	-791.0398559570315	263.6606140136719	-749.7584838867189	-811.2304687500002	361.7273254394532	-753.8771972656251	-907.4921875000002	160.2481536865235	-763.0011596679689	-916.5828857421877	166.578125	-808.398864746094	-935.163757324219	227.2452087402344	-843.8955688476565	-359.1886901855469	709.3919067382814	-549.3748779296876	-295.2805175781251	688.6609497070314	-555.9535522460939	-269.1798706054688	706.7612915039064	-560.6520996093751	-272.8200683593751	610.4970092773439	-578.4431762695314	-179.9962463378907	478.4956359863282	-616.5120849609376	-162.1373138427735	490.8887634277345	-749.0956420898439	-203.4254608154297	306.7928161621094	-729.8225708007814	-265.3568725585938	240.8880157470704	-664.6311035156251	-240.253646850586	228.0898437500001	-703.1932983398439	-269.8473815917969	196.7894287109376	-741.1030273437501	-362.9147644042969	111.7843170166016	-700.3497924804689	-333.5348510742188	136.7246856689453	-787.2373657226565	-436.6671447753907	100.9356002807617	-764.9179077148439	-228.8090209960938	60.84343338012697	-775.1490478515627	-222.6211700439454	59.98790359497072	-723.1653442382814	-272.9001159667969	27.48314094543458	-672.1725463867189	
801	4	-151.126693725586	1566.822631835938	-645.2208862304689	-305.4236755371094	1529.792358398438	-732.8747558593751	-127.4169616699219	1574.337036132813	-786.770935058594	-334.5417480468751	1388.5888671875	-744.9772949218751	-435.6822814941407	1108.879638671875	-746.0694580078126	-190.5039672851563	1309.601928710938	-720.6801757812501	-193.0306549072266	1373.024169921875	-867.1778564453127	-39.73907852172852	1318.17529296875	-972.3294677734377	-18.07940673828125	1356.097290039063	-945.5755004882815	29.05605697631837	1320.715698242188	-959.8542480468752	102.7919235229492	1328.495239257813	-939.5435180664065	108.3214187622071	1272.804321289063	-904.9284667968752	363.3545227050782	1353.501831054688	-829.474548339844	367.8741760253907	1376.00537109375	-908.5249023437502	461.379608154297	1384.731201171875	-826.598571777344	-218.4821929931641	1384.015380859375	-580.9860229492189	-70.53917694091798	1309.332763671875	-468.853729248047	-49.15108489990236	1347.080078125	-494.1926269531251	-1.884203791618348	1319.71240234375	-470.8487243652345	66.55551147460939	1314.585205078125	-479.4994201660157	75.60301208496095	1256.44482421875	-529.8074951171876	327.7192077636719	1357.18017578125	-560.5550537109376	332.0951232910157	1372.5927734375	-487.7785034179689	420.984100341797	1398.197143554688	-555.6994628906251	-330.2074890136719	848.910095214844	-856.771179199219	-331.7489929199219	880.2725219726565	-621.1958618164064	-488.3441772460939	1003.220581054688	-744.7028808593751	-503.9234313964845	971.9866943359377	-769.776306152344	-505.1201171875001	978.0417480468752	-711.7078857421876	-396.1326904296876	587.1241455078126	-940.4511718750002	-364.5996093750001	506.9017944335939	-942.714050292969	-319.3755798339844	506.216766357422	-920.4376220703127	-394.2698364257814	454.2496948242189	-935.8115844726565	-411.1624450683595	375.8912963867188	-920.381286621094	-380.1193542480469	353.1063842773438	-794.7677001953127	-496.746307373047	282.4223327636719	-874.790954589844	-557.7294921875001	337.2716064453126	-909.1717529296877	-551.8128051757814	295.6677856445313	-896.1689453125002	-622.9389648437501	273.4238586425782	-855.8857421875002	-820.035095214844	312.8911132812501	-824.851013183594	-790.9605712890627	264.0614318847657	-749.6355590820314	-811.1177978515627	362.1011657714844	-753.7918090820314	-907.059509277344	160.4901580810547	-763.0449829101564	-915.8261718750002	166.5559692382813	-808.3491821289065	-934.2707519531252	226.9328765869141	-843.981872558594	-359.2199707031251	710.0236816406251	-549.3725585937501	-295.3917541503907	689.2289428710939	-556.0777587890626	-269.1611328125001	707.5426635742189	-560.6998291015626	-273.1505432128907	611.0473022460939	-578.5601806640626	-180.3543243408203	478.8831176757814	-616.5670776367189	-162.4942321777344	491.0733642578126	-749.1178588867189	-203.7163391113282	307.0027160644532	-729.9332885742189	-265.4545898437501	240.899642944336	-664.6731567382814	-240.4000549316407	228.3032836914063	-703.3441162109376	-269.9544372558594	197.0134429931641	-741.2050170898439	-362.9103393554688	111.8097839355469	-700.4307861328126	-333.4640502929688	136.6498260498047	-787.2803955078127	-436.6799316406251	100.9276428222657	-764.9852905273439	-228.7025756835938	60.5776824951172	-775.2708129882815	-222.6392211914063	60.06172561645509	-723.1425170898439	-272.9007263183594	27.55928039550782	-672.2915039062501	
802	4.005	-151.2567749023438	1567.735595703125	-645.2922363281251	-305.4689025878907	1530.608642578125	-732.8664550781251	-127.4491119384766	1575.374267578125	-786.7590942382815	-334.6697387695313	1389.585815429688	-744.9489746093751	-435.4189758300782	1110.038330078125	-746.1949462890626	-190.623764038086	1310.626220703125	-720.7290649414064	-192.8741912841797	1373.987548828125	-867.1985473632815	-39.75644683837891	1319.420654296875	-972.2593994140627	-17.98454475402832	1357.256958007813	-945.4644775390627	29.0566806793213	1321.851318359375	-959.682067871094	102.9747772216797	1329.674438476563	-939.4970703125002	107.7157974243164	1273.945678710938	-904.349304199219	363.6155700683594	1354.715576171875	-828.9937133789065	367.7114257812501	1376.956787109375	-908.0120239257815	461.3406677246095	1385.765502929688	-826.0911254882815	-218.7091064453126	1384.855712890625	-580.9105834960939	-70.83831787109376	1310.123168945313	-468.7295532226564	-49.2209930419922	1348.3935546875	-494.1373901367189	-2.109853029251099	1320.529418945313	-470.7364501953126	66.28674316406251	1315.712768554688	-479.259735107422	75.35095977783205	1257.350463867188	-529.6976318359376	327.7165222167969	1358.098266601563	-560.4080810546876	332.0437316894532	1373.605102539063	-487.3624572753907	421.0757141113282	1399.674194335938	-555.1258544921876	-329.7209472656251	849.7937622070315	-856.8734130859377	-331.3645324707032	881.0447998046877	-621.3135375976564	-488.2239990234376	1003.872985839844	-744.7268066406251	-503.7771911621095	972.7420654296877	-769.7692871093752	-505.0486755371095	978.7412719726565	-711.7542724609376	-396.009979248047	587.8443603515626	-940.5268554687502	-363.9083557128907	508.1703491210939	-943.0693969726565	-319.1644592285157	507.0901794433595	-920.4148559570315	-393.876922607422	455.1220092773439	-935.873718261719	-410.8260498046876	376.6152648925782	-920.3972778320315	-380.2048950195313	354.0382080078126	-794.6094360351565	-496.4515991210939	283.5165710449219	-874.8982543945315	-555.8505249023439	338.0401000976563	-909.9617919921877	-551.6096191406251	296.4937133789063	-896.1521606445315	-622.4215698242189	274.0955200195313	-856.0389404296877	-820.0646972656252	313.2603454589844	-824.6958007812502	-790.8974609375002	264.1576232910157	-749.6372070312501	-811.0683593750002	362.3644409179688	-753.7734375000001	-906.6218872070315	160.7879180908203	-763.1026611328126	-915.3620605468752	166.7538146972657	-808.3767700195315	-933.8089599609377	227.1174926757813	-843.9544677734377	-359.1885070800782	710.5153198242189	-549.5001220703126	-295.4186401367188	689.9614868164064	-556.2092285156251	-269.1006774902344	707.6814575195314	-560.8030395507814	-273.4640502929688	611.5319824218751	-578.5961914062501	-180.5871887207032	479.1170043945314	-616.6291503906251	-162.8966217041016	491.2722167968751	-749.0921630859376	-203.9593811035157	307.1682434082032	-729.9745483398439	-265.5501403808594	241.0066680908204	-664.7894897460939	-240.3688049316407	228.6038818359376	-703.4122314453126	-270.0816040039063	197.2419738769532	-741.1943359375001	-362.9252929687501	111.874870300293	-700.4365234375001	-333.4882202148438	136.6551666259766	-787.3260498046877	-436.6727294921876	100.9865112304688	-764.9711914062501	-228.8200378417969	60.64318847656251	-775.2784423828127	-222.6253509521485	60.01487350463869	-723.1655883789064	-272.9081726074219	27.57928085327149	-672.2622680664064	
803	4.01	-151.2015380859375	1568.743530273438	-645.1956787109376	-304.9917602539063	1531.631958007813	-733.0668945312501	-127.4125518798828	1576.389770507813	-786.696960449219	-334.7247619628907	1390.716796875	-745.1193237304689	-435.4954833984376	1110.605834960938	-746.2784423828126	-190.5801391601563	1311.877563476563	-720.6396484375001	-192.9285888671876	1375.123413085938	-867.1614379882815	-39.56379699707032	1320.376098632813	-972.1152954101565	-17.99620819091797	1358.263427734375	-945.2686157226565	29.20482063293458	1322.888061523438	-959.4944458007815	102.9049377441407	1330.603515625	-939.1838378906252	108.1513977050782	1274.888671875	-904.4962158203127	363.4307556152344	1355.716796875	-828.6823730468752	367.7719116210938	1378.113647460938	-907.6340942382815	461.297576904297	1386.660278320313	-825.6149902343752	-218.9428863525391	1385.994384765625	-580.9558715820314	-71.01826477050783	1311.158935546875	-468.7545471191407	-49.38111495971681	1349.176391601563	-494.0122680664064	-2.337875843048096	1321.672119140625	-470.7100524902345	66.14083099365236	1316.41552734375	-479.3336181640626	75.25644683837892	1258.119384765625	-529.5187988281251	327.6762084960938	1359.130249023438	-560.0736694335939	331.8687438964844	1374.441284179688	-487.1354980468751	421.2179260253907	1400.524780273438	-554.6717529296876	-329.1933288574219	850.821228027344	-856.897155761719	-330.9866638183594	881.7990722656252	-621.3087158203126	-488.054901123047	1004.913391113281	-744.8973999023439	-503.5945129394532	973.5134277343752	-769.9058227539065	-504.8793334960939	979.5594482421877	-711.8115234375001	-395.6908264160157	588.8825073242189	-940.5382080078127	-363.8503417968751	509.0636291503907	-943.1829833984377	-319.1615295410157	507.7515258789064	-920.4243774414065	-393.6411132812501	455.9114990234376	-935.843688964844	-410.8150329589845	377.5266418457032	-920.391784667969	-380.0144958496094	354.9309082031251	-794.6301879882815	-496.7709350585939	284.7719116210938	-874.706237792969	-555.8787231445314	338.8313598632813	-909.798522949219	-551.4619140625001	297.2161254882813	-895.995056152344	-622.2678833007814	274.9046936035157	-855.914245605469	-819.8345336914065	313.7472534179688	-824.653503417969	-790.4180908203127	264.7216186523438	-749.7633056640626	-810.9021606445315	362.8523254394532	-753.6737060546876	-906.1821899414065	161.03955078125	-763.1639404296876	-914.9067993164065	167.018295288086	-808.4147949218752	-933.4915771484377	227.3059844970704	-843.973083496094	-359.1477966308594	711.1741333007814	-549.7902221679689	-295.3679504394532	690.2875366210939	-556.2166748046876	-269.0551452636719	708.7166748046876	-560.7720947265626	-273.7090759277344	612.0795898437501	-578.6712646484376	-181.0146942138672	479.5813598632814	-616.6826171875001	-163.1570739746094	491.641326904297	-749.2050781250001	-204.2525329589844	307.4083557128907	-729.9486694335939	-265.6729125976563	241.0645904541016	-664.7924804687501	-240.1105651855469	228.3626098632813	-703.0379638671876	-270.2045593261719	197.3649902343751	-741.2326049804689	-362.9943237304688	111.8404312133789	-700.4128417968751	-333.5047912597657	136.6936950683594	-787.2940673828127	-436.6545410156251	100.933464050293	-765.0169677734376	-228.8475494384766	60.66383361816408	-775.3156738281252	-222.6420135498047	60.05473709106447	-723.1664428710939	-272.9098815917969	27.50448226928712	-672.2813720703126	
